<?xml version="1.0" standalone="no"?>
<!DOCTYPE svg PUBLIC "-//W3C//DTD SVG 20010904//EN"
 "http://www.w3.org/TR/2001/REC-SVG-20010904/DTD/svg10.dtd">
<svg version="1.0" xmlns="http://www.w3.org/2000/svg"
 width="512.000000pt" height="512.000000pt" viewBox="0 0 512.000000 512.000000"
 preserveAspectRatio="xMidYMid meet">
<metadata>
Created by potrace 1.16, written by Peter Selinger 2001-2019
</metadata>
<g transform="translate(0.000000,512.000000) scale(0.100000,-0.100000)"
fill="#000000" stroke="none">
<path d="M2480 4708 l-45 -23 -315 -634 c-173 -348 -320 -639 -326 -645 -5 -6
-318 -55 -695 -109 -764 -110 -757 -109 -796 -187 -28 -54 -29 -92 -4 -145 13
-28 170 -186 519 -525 316 -307 500 -492 501 -505 1 -11 -51 -321 -114 -689
-63 -368 -115 -685 -115 -703 0 -48 34 -107 75 -133 30 -19 46 -21 98 -18 59
5 97 23 680 331 l617 325 618 -324 c339 -179 634 -329 655 -333 100 -23 197
51 197 150 0 20 -52 338 -115 706 -63 369 -115 678 -115 686 0 9 227 238 505
508 515 503 535 525 535 597 0 15 -10 48 -22 72 -40 79 -32 77 -803 188 -379
55 -691 103 -693 108 -2 5 -146 295 -320 644 l-317 635 -45 23 c-24 12 -60 22
-80 22 -20 0 -56 -10 -80 -22z"/>
</g>
</svg>
